<svg xmlns="http://www.w3.org/2000/svg" width="24" height="24" viewBox="0 0 24 24">
  <g id="ico-add-passenger" transform="translate(-283 -16)">
    <rect id="Rectangle_1506" data-name="Rectangle 1506" width="24" height="24" transform="translate(283 16)" fill="none"/>
    <path id="person_add_FILL0_wght400_GRAD0_opsz24" d="M58.545-789.091v-3.273H55.273v-2.182h3.273v-3.273h2.182v3.273H64v2.182H60.727v3.273Zm-9.818-2.182a4.2,4.2,0,0,1-3.082-1.282,4.2,4.2,0,0,1-1.282-3.082,4.2,4.2,0,0,1,1.282-3.082A4.2,4.2,0,0,1,48.727-800a4.2,4.2,0,0,1,3.082,1.282,4.2,4.2,0,0,1,1.282,3.082,4.2,4.2,0,0,1-1.282,3.082A4.2,4.2,0,0,1,48.727-791.273ZM40-782.545V-785.6a3.2,3.2,0,0,1,.477-1.7,3.182,3.182,0,0,1,1.268-1.186,16.2,16.2,0,0,1,3.436-1.268,15.007,15.007,0,0,1,3.545-.423,15.007,15.007,0,0,1,3.545.423,16.2,16.2,0,0,1,3.436,1.268,3.182,3.182,0,0,1,1.268,1.186,3.2,3.2,0,0,1,.477,1.7v3.055Zm2.182-2.182H55.273v-.873a1.025,1.025,0,0,0-.15-.545,1.061,1.061,0,0,0-.4-.382,14.215,14.215,0,0,0-2.973-1.1A12.653,12.653,0,0,0,48.727-788a12.654,12.654,0,0,0-3.027.368,14.215,14.215,0,0,0-2.973,1.1,1.061,1.061,0,0,0-.4.382,1.025,1.025,0,0,0-.15.545Zm6.545-8.727a2.1,2.1,0,0,0,1.541-.641,2.1,2.1,0,0,0,.641-1.541,2.1,2.1,0,0,0-.641-1.541,2.1,2.1,0,0,0-1.541-.641,2.1,2.1,0,0,0-1.541.641,2.1,2.1,0,0,0-.641,1.541,2.1,2.1,0,0,0,.641,1.541A2.1,2.1,0,0,0,48.727-793.455ZM48.727-795.636ZM48.727-784.727Z" transform="translate(243 819)" fill="#fff"/>
  </g>
</svg>
