<svg xmlns="http://www.w3.org/2000/svg" width="26" height="26" viewBox="0 0 26 26">
  <g id="ico-add-stops" transform="translate(18106 16656)">
    <rect id="Rectangle_1545" data-name="Rectangle 1545" width="26" height="26" transform="translate(-18106 -16656)" fill="none"/>
    <path id="add_location" d="M168.727-936a36.265,36.265,0,0,1-6.559-6.941A10.794,10.794,0,0,1,160-948.873a8.437,8.437,0,0,1,2.632-6.518,8.718,8.718,0,0,1,6.1-2.427h.545a2.779,2.779,0,0,1,.545.055v2.209a3.7,3.7,0,0,0-.532-.068q-.259-.014-.559-.014a6.322,6.322,0,0,0-4.65,1.9,6.59,6.59,0,0,0-1.9,4.868,8.47,8.47,0,0,0,1.609,4.432,30.02,30.02,0,0,0,4.936,5.55,30.019,30.019,0,0,0,4.936-5.55,8.47,8.47,0,0,0,1.609-4.432v-.218h2.182v.218a10.794,10.794,0,0,1-2.168,5.932A36.264,36.264,0,0,1,168.727-936Zm0-10.909a2.1,2.1,0,0,0,1.541-.641,2.1,2.1,0,0,0,.641-1.541,2.1,2.1,0,0,0-.641-1.541,2.1,2.1,0,0,0-1.541-.641,2.1,2.1,0,0,0-1.541.641,2.1,2.1,0,0,0-.641,1.541,2.1,2.1,0,0,0,.641,1.541A2.1,2.1,0,0,0,168.727-946.909ZM168.727-949.091Zm6.545-2.182h2.182v-3.273h3.273v-2.182h-3.273V-960h-2.182v3.273H172v2.182h3.273Z" transform="translate(-18263 -15695)" fill="#fff"/>
  </g>
</svg>
