<svg xmlns="http://www.w3.org/2000/svg" width="24" height="21.6" viewBox="0 0 24 21.6">
  <path id="ico-pickup-location" d="M87.89-828.9ZM80-818.4v-14.4l9.6-7.2,6.45,4.86a5.821,5.821,0,0,0-1.41.345,5.9,5.9,0,0,0-1.26.675L89.6-837l-7.2,5.4v10.8h4.8v2.4Zm9.6,0v-2.28a2.363,2.363,0,0,1,.315-1.185,2.419,2.419,0,0,1,.855-.885,12.066,12.066,0,0,1,2.895-1.23,11.682,11.682,0,0,1,3.135-.42,11.682,11.682,0,0,1,3.135.42,12.066,12.066,0,0,1,2.895,1.23,2.419,2.419,0,0,1,.855.885A2.363,2.363,0,0,1,104-820.68v2.28Zm2.58-2.4h9.24a8.92,8.92,0,0,0-2.22-.9,9.624,9.624,0,0,0-2.4-.3,9.624,9.624,0,0,0-2.4.3A8.92,8.92,0,0,0,92.18-820.8Zm4.62-4.8a3.472,3.472,0,0,1-2.55-1.05,3.472,3.472,0,0,1-1.05-2.55,3.472,3.472,0,0,1,1.05-2.55,3.472,3.472,0,0,1,2.55-1.05,3.472,3.472,0,0,1,2.55,1.05,3.472,3.472,0,0,1,1.05,2.55,3.472,3.472,0,0,1-1.05,2.55A3.472,3.472,0,0,1,96.8-825.6Zm0-2.4a1.161,1.161,0,0,0,.855-.345A1.161,1.161,0,0,0,98-829.2a1.161,1.161,0,0,0-.345-.855,1.161,1.161,0,0,0-.855-.345,1.161,1.161,0,0,0-.855.345,1.161,1.161,0,0,0-.345.855,1.161,1.161,0,0,0,.345.855A1.161,1.161,0,0,0,96.8-828ZM96.8-820.8Z" transform="translate(-80 840)" fill="#ff6926"/>
</svg>
