<svg xmlns="http://www.w3.org/2000/svg" width="24" height="24.002" viewBox="0 0 24 24.002">
  <g id="ico-add-dropoff" transform="translate(0 -12)">
    <rect id="Rectangle_1548" data-name="Rectangle 1548" width="24" height="24" transform="translate(0 12)" fill="none"/>
    <path id="pin_drop" d="M208.4-862.628a22.507,22.507,0,0,0,4.485-4.62,7.5,7.5,0,0,0,1.515-4.17,6.155,6.155,0,0,0-.615-2.865,6.008,6.008,0,0,0-1.515-1.92,5.831,5.831,0,0,0-1.95-1.065,6.454,6.454,0,0,0-1.92-.33,6.454,6.454,0,0,0-1.92.33,5.831,5.831,0,0,0-1.95,1.065,6.008,6.008,0,0,0-1.515,1.92,6.155,6.155,0,0,0-.615,2.865,7.5,7.5,0,0,0,1.515,4.17A22.507,22.507,0,0,0,208.4-862.628Zm0,3.03a28.179,28.179,0,0,1-6.316-6.061A9.973,9.973,0,0,1,200-871.419a8.592,8.592,0,0,1,.765-3.735,8.451,8.451,0,0,1,1.965-2.685,8.106,8.106,0,0,1,2.7-1.62,8.726,8.726,0,0,1,2.97-.54,8.726,8.726,0,0,1,2.97.54,8.106,8.106,0,0,1,2.7,1.62,8.451,8.451,0,0,1,1.965,2.685,8.591,8.591,0,0,1,.765,3.735,9.973,9.973,0,0,1-2.085,5.761A28.178,28.178,0,0,1,208.4-859.6Zm0-9.6a2.311,2.311,0,0,0,1.7-.705,2.311,2.311,0,0,0,.705-1.7,2.311,2.311,0,0,0-.705-1.7,2.311,2.311,0,0,0-1.7-.705,2.311,2.311,0,0,0-1.7.705,2.311,2.311,0,0,0-.705,1.7,2.311,2.311,0,0,0,.705,1.7A2.311,2.311,0,0,0,208.4-869.2ZM200-856v-2.4h16.8v2.4ZM208.4-871.419Z" transform="translate(-196 892)" fill="#ff6926"/>
  </g>
</svg>
