<svg xmlns="http://www.w3.org/2000/svg" width="50.643" height="43.89" viewBox="0 0 50.643 43.89">
  <g id="car" transform="translate(-2 -6)">
    <path id="Path_316" data-name="Path 316" d="M10.217,10.617A6.752,6.752,0,0,1,16.623,6h21.4a6.752,6.752,0,0,1,6.406,4.617l2.489,7.467,1.168-.675a1.688,1.688,0,0,1,1.688,2.924L48,21.354l.3.9a8.438,8.438,0,0,1,4.337,7.378V31.62a14.35,14.35,0,0,0-26.165,8.142q0,.425.024.844H15.452A6.753,6.753,0,0,1,2,39.762V29.633a8.438,8.438,0,0,1,4.337-7.378l.273-.82L4.7,20.334A1.688,1.688,0,0,1,6.39,17.41l1.311.757Zm31.006,1.068,3.169,9.508H10.25l3.169-9.508a3.376,3.376,0,0,1,3.2-2.309h21.4A3.376,3.376,0,0,1,41.223,11.685ZM16.349,33.009a1.688,1.688,0,0,0,0-3.376H12.973a1.688,1.688,0,1,0,0,3.376Z" fill="#f96925" fill-rule="evenodd"/>
    <path id="Path_317" data-name="Path 317" d="M54.1,36.15a7.342,7.342,0,0,0-12.524,5.568L37.43,45.86a4.919,4.919,0,0,0,6.957,6.956l4.142-4.142A7.342,7.342,0,0,0,54.1,36.15Zm-8,2.387a3.966,3.966,0,1,1,2.1,6.708,1.688,1.688,0,0,0-1.49.468L42,50.429a1.543,1.543,0,1,1-2.182-2.182l4.715-4.715A1.688,1.688,0,0,0,45,42.043,3.959,3.959,0,0,1,46.1,38.538Z" transform="translate(-5.301 -4.367)" fill="#445153" fill-rule="evenodd"/>
  </g>
</svg>
